HIERARCHY
ROOT Pelvis
{
	OFFSET 0.000000 0.000000 0.000000
	CHANNELS 6 Xposition Yposition Zposition Xrotation Yrotation Zrotation
	JOINT LeftUpLeg_virtual
	{
		OFFSET 0.000000 0.000000 0.000000
		CHANNELS 3 Xrotation Yrotation Zrotation
		JOINT LeftUpLeg
		{
			OFFSET 18.735201 -5.666702 -4.541200
			CHANNELS 3 Xrotation Yrotation Zrotation
			JOINT LeftLeg
			{
				OFFSET -0.021200 -31.938179 0.493100
				CHANNELS 3 Xrotation Yrotation Zrotation
				JOINT LeftFoot
				{
					OFFSET 0.021200 -31.938179 -4.336299
					CHANNELS 3 Xrotation Yrotation Zrotation
					JOINT LeftToeBase
					{
						OFFSET 0.943001 -26.722000 15.023500
						CHANNELS 3 Xrotation Yrotation Zrotation
						End Site
						{
							OFFSET 0 0 0
						}
					}
				}
			}
		}
	}
	JOINT RightUpLeg_virtual
	{
		OFFSET 0.000000 0.000000 0.000000
		CHANNELS 3 Xrotation Yrotation Zrotation
		JOINT RightUpLeg
		{
			OFFSET -18.735201 -5.666702 -4.541200
			CHANNELS 3 Xrotation Yrotation Zrotation
			JOINT RightLeg
			{
				OFFSET 0.018946 -31.938133 0.493100
				CHANNELS 3 Xrotation Yrotation Zrotation
				JOINT RightFoot
				{
					OFFSET -0.018946 -31.938126 -4.336299
					CHANNELS 3 Xrotation Yrotation Zrotation
					JOINT RightToeBase
					{
						OFFSET -0.943001 -26.722004 15.023500
						CHANNELS 3 Xrotation Yrotation Zrotation
						End Site
						{
							OFFSET 0 0 0
						}
					}
				}
			}
		}
	}
	JOINT Hips_virtual
	{
		OFFSET 0.000000 0.000000 0.000000
		CHANNELS 3 Xrotation Yrotation Zrotation
		JOINT Hips
		{
			OFFSET -0.000000 -0.000000 -0.000000
			CHANNELS 3 Xrotation Yrotation Zrotation
			JOINT Spine
			{
				OFFSET 0.000000 10.199997 -0.299500
				CHANNELS 3 Xrotation Yrotation Zrotation
				JOINT Spine1
				{
					OFFSET 0.000000 11.900002 -1.516600
					CHANNELS 3 Xrotation Yrotation Zrotation
					JOINT Spine2
					{
						OFFSET 0.000000 13.600006 -2.842500
						CHANNELS 3 Xrotation Yrotation Zrotation
						JOINT Neck_virtual
						{
							OFFSET 0.000000 0.000000 0.000000
							CHANNELS 3 Xrotation Yrotation Zrotation
							JOINT Neck
							{
								OFFSET 0.000000 9.624100 -2.890100
								CHANNELS 3 Xrotation Yrotation Zrotation
								JOINT Head
								{
									OFFSET 0.000000 14.068802 -1.351900
									CHANNELS 3 Xrotation Yrotation Zrotation
									End Site
									{
										OFFSET 0 0 0
									}
								}
							}
						}
						JOINT LeftShoulder_virtual
						{
							OFFSET 0.000000 0.000000 0.000000
							CHANNELS 3 Xrotation Yrotation Zrotation
							JOINT LeftShoulder
							{
								OFFSET 15.263000 10.923401 -0.547700
								CHANNELS 3 Xrotation Yrotation Zrotation
								JOINT LeftArm
								{
									OFFSET 25.438599 -2.830597 -13.032500
									CHANNELS 3 Xrotation Yrotation Zrotation
									JOINT LeftForeArm
									{
										OFFSET 29.960503 0.000000 0.000000
										CHANNELS 3 Xrotation Yrotation Zrotation
										JOINT LeftHand
										{
											OFFSET 27.849251 0.000000 0.000000
											CHANNELS 3 Xrotation Yrotation Zrotation
											End Site
											{
												OFFSET 0 0 0
											}
										}
									}
								}
							}
						}
						JOINT RightShoulder_virtual
						{
							OFFSET 0.000000 0.000000 0.000000
							CHANNELS 3 Xrotation Yrotation Zrotation
							JOINT RightShoulder
							{
								OFFSET -15.263000 10.923401 -0.547700
								CHANNELS 3 Xrotation Yrotation Zrotation
								JOINT RightArm
								{
									OFFSET -25.438599 -2.830597 -13.032500
									CHANNELS 3 Xrotation Yrotation Zrotation
									JOINT RightForeArm
									{
										OFFSET -29.960503 0.000000 0.000000
										CHANNELS 3 Xrotation Yrotation Zrotation
										JOINT RightHand
										{
											OFFSET -27.849251 0.000000 0.000000
											CHANNELS 3 Xrotation Yrotation Zrotation
											End Site
											{
												OFFSET 0 0 0
											}
										}
									}
								}
							}
						}
					}
				}
			}
		}
	}
}
MOTION
Frames: 9
Frame Time: 0.03333333
0.809022 79.964287 17.517841 0.000000 0.000000 0.000000 -0.739805 -33.404399 2.912735 -45.347436 -0.191945 18.952315 54.854653 -5.687576 -1.153122 -1.355199 -5.103423 -12.068186 0.000000 0.000000 0.000000 11.328065 -29.093778 -1.505316 -17.213516 -13.311466 -21.479664 44.099376 -1.119931 -0.792744 -11.981890 -4.126621 9.256498 0.000000 0.000000 0.000000 -0.638765 -17.824866 1.295186 -0.855330 -6.933980 -5.384046 12.577007 5.685365 -5.004779 5.454968 2.812371 -2.223382 0.000000 0.000000 0.000000 4.595368 1.782334 -0.955778 0.277760 1.423321 0.101260 0.000000 0.000000 0.000000 4.295725 1.625643 -0.936645 1.374257 3.121930 -6.500973 -52.806679 -17.705153 -57.124919 -95.602322 -82.330158 -90.073769 0.000000 0.000000 0.000000 4.770129 2.384825 -2.256557 2.953488 14.479499 -5.194206 -39.270142 31.410046 47.331264 -152.978055 80.240974 150.085730 0.000000 0.000000 0.000000 
0.772451 79.826035 16.661716 0.000000 0.000000 0.000000 -0.842711 -34.194061 3.223377 -45.574085 -0.566466 19.199233 54.938599 -5.413724 -1.529132 -1.209399 -4.665211 -12.426108 0.000000 0.000000 0.000000 11.308189 -30.273799 -1.440445 -17.445331 -13.614059 -21.680897 44.347452 -1.542471 -0.324921 -12.142674 -4.759195 9.677499 0.000000 0.000000 0.000000 -1.072825 -18.977051 1.264534 -1.290821 -7.571931 -5.399393 12.443330 5.485544 -4.768123 5.327445 2.698367 -2.079410 0.000000 0.000000 0.000000 4.588548 1.808830 -0.947308 0.322412 1.507857 0.050593 0.000000 0.000000 0.000000 4.254252 1.528711 -0.873753 1.424136 3.129981 -6.564050 -53.092505 -17.335532 -56.924835 -93.300398 -82.183725 -87.721431 0.000000 0.000000 0.000000 4.733921 2.320682 -2.205153 3.068773 14.556443 -5.157781 -39.423872 31.053305 48.398526 -153.907972 79.662996 151.166512 0.000000 0.000000 0.000000 
0.713739 79.689102 15.767834 0.000000 0.000000 0.000000 -0.971673 -34.913455 3.524579 -45.833377 -0.928329 19.449203 55.050877 -5.180313 -1.873014 -1.018761 -4.288416 -12.772736 0.000000 0.000000 0.000000 11.295702 -31.267694 -1.367407 -17.656773 -13.869400 -21.845293 44.627513 -1.898004 0.117100 -12.264361 -5.307918 10.094553 0.000000 0.000000 0.000000 -1.483300 -20.040081 1.233670 -1.654392 -8.105115 -5.379595 12.316174 5.291266 -4.532088 5.202307 2.587434 -1.934433 0.000000 0.000000 0.000000 4.593421 1.827202 -0.941479 0.371297 1.584793 -0.000831 0.000000 0.000000 0.000000 4.211358 1.437575 -0.817180 1.472714 3.146779 -6.647392 -53.309801 -16.992090 -56.733361 -90.918076 -82.039943 -85.310552 0.000000 0.000000 0.000000 4.693502 2.252673 -2.159478 3.177773 14.606412 -5.139999 -39.509035 30.735780 49.445515 -154.794790 79.091849 152.218101 0.000000 0.000000 0.000000 
0.639056 79.562576 14.840518 0.000000 0.000000 0.000000 -1.128500 -35.552142 3.808193 -46.121115 -1.271955 19.695035 55.183386 -4.988662 -2.176868 -0.788988 -3.977754 -13.097814 0.000000 0.000000 0.000000 11.276646 -32.081153 -1.299920 -17.859659 -14.074277 -21.983331 44.919589 -2.175370 0.516768 -12.356620 -5.758309 10.492906 0.000000 0.000000 0.000000 -1.866212 -21.009561 1.205167 -1.934009 -8.527110 -5.317794 12.198470 5.103055 -4.293958 5.081549 2.479910 -1.787039 0.000000 0.000000 0.000000 4.608920 1.838305 -0.938591 0.423788 1.654564 -0.052751 0.000000 0.000000 0.000000 4.168020 1.352334 -0.766150 1.520282 3.171163 -6.745746 -53.463374 -16.679491 -56.557443 -88.531963 -81.897998 -82.918155 0.000000 0.000000 0.000000 4.648894 2.181453 -2.119943 3.279732 14.630243 -5.142011 -39.539839 30.455800 50.465283 -155.658536 78.520278 153.255238 0.000000 0.000000 0.000000 
0.554229 79.454552 13.885917 0.000000 0.000000 0.000000 -1.315620 -36.099684 4.065658 -46.434133 -1.591570 19.929638 55.329245 -4.840687 -2.434203 -0.526634 -3.737643 -13.393265 0.000000 0.000000 0.000000 11.240825 -32.727596 -1.247480 -18.062121 -14.229084 -22.102543 45.207045 -2.372744 0.862676 -12.427199 -6.106584 10.859928 0.000000 0.000000 0.000000 -2.218164 -21.883436 1.181550 -2.123088 -8.835964 -5.206968 12.092540 4.921830 -4.051027 4.966889 2.376328 -1.635889 0.000000 0.000000 0.000000 4.633253 1.843056 -0.938939 0.478923 1.717550 -0.104903 0.000000 0.000000 0.000000 4.125567 1.273016 -0.719794 1.567352 3.201184 -6.853487 -53.559024 -16.403060 -56.402978 -86.219547 -81.759045 -80.621559 0.000000 0.000000 0.000000 4.600360 2.108215 -2.086640 3.374043 14.630740 -5.163578 -39.529003 30.209281 51.447498 -156.499537 77.947738 154.272554 0.000000 0.000000 0.000000 
0.464100 79.371147 12.912260 0.000000 0.000000 0.000000 -1.535831 -36.548633 4.288546 -46.770718 -1.882109 20.146295 55.483734 -4.739004 -2.640123 -0.238703 -3.572273 -13.653467 0.000000 0.000000 0.000000 11.184165 -33.227921 -1.212881 -18.267261 -14.338471 -22.206113 45.480246 -2.495464 1.150611 -12.480372 -6.358122 11.188861 0.000000 0.000000 0.000000 -2.537071 -22.662043 1.164763 -2.221857 -9.034570 -5.042270 11.999819 4.748994 -3.801576 4.859592 2.277470 -1.480249 0.000000 0.000000 0.000000 4.664274 1.842431 -0.942642 0.535573 1.774087 -0.156944 0.000000 0.000000 0.000000 4.085449 1.199653 -0.677355 1.614500 3.234547 -6.965508 -53.603270 -16.167657 -56.274612 -84.048032 -81.626068 -78.487152 0.000000 0.000000 0.000000 4.548253 2.034588 -2.059286 3.460107 14.612242 -5.202777 -39.487192 29.989858 52.378880 -157.304584 77.380647 155.250910 0.000000 0.000000 0.000000 
0.372081 79.316139 11.929790 0.000000 0.000000 0.000000 -1.791410 -36.897283 4.469625 -47.130143 -2.140121 20.339164 55.644728 -4.686581 -2.791130 0.067764 -3.485469 -13.874694 0.000000 0.000000 0.000000 11.108818 -33.608526 -1.192055 -18.473491 -14.410816 -22.292930 45.736726 -2.553723 1.383512 -12.517295 -6.525149 11.479590 0.000000 0.000000 0.000000 -2.822749 -23.348121 1.155672 -2.238034 -9.130888 -4.823310 11.920693 4.586496 -3.545805 4.760340 2.184413 -1.320499 0.000000 0.000000 0.000000 4.699907 1.837593 -0.949353 0.592629 1.824575 -0.208308 0.000000 0.000000 0.000000 4.048948 1.132388 -0.638372 1.662164 3.269226 -7.078051 -53.603530 -15.976195 -56.175553 -82.065775 -81.502387 -76.561879 0.000000 0.000000 0.000000 4.492943 1.962524 -2.037306 3.537314 14.580323 -5.256280 -39.422735 29.790065 53.244733 -158.055290 76.831179 156.166128 0.000000 0.000000 0.000000 
0.280020 79.291283 10.950243 0.000000 0.000000 0.000000 -2.082877 -37.151195 4.604131 -47.511557 -2.364441 20.503862 55.812283 -4.686107 -2.884678 0.385881 -3.480399 -14.054110 0.000000 0.000000 0.000000 11.021267 -33.897095 -1.176107 -18.676205 -14.456334 -22.358867 45.978416 -2.560283 1.569485 -12.537845 -6.623835 11.736933 0.000000 0.000000 0.000000 -3.077199 -23.946787 1.153801 -2.186456 -9.137878 -4.555461 11.854424 4.436785 -3.286451 4.669196 2.098516 -1.158463 0.000000 0.000000 0.000000 4.738479 1.830041 -0.957998 0.649155 1.869591 -0.258064 0.000000 0.000000 0.000000 4.016912 1.071551 -0.602793 1.710469 3.303981 -7.189241 -53.568146 -15.828388 -56.107446 -80.298743 -81.390611 -74.869323 0.000000 0.000000 0.000000 4.434819 1.894184 -2.020031 3.605183 14.541456 -5.320194 -39.341760 29.603228 54.031588 -158.735577 76.314277 156.997198 0.000000 0.000000 0.000000 
0.188417 79.296959 9.985937 0.000000 0.000000 0.000000 -2.407918 -37.323306 4.690760 -47.912725 -2.556489 20.637985 55.987334 -4.739538 -2.918789 0.708670 -3.559312 -14.188968 0.000000 0.000000 0.000000 10.929522 -34.117656 -1.154522 -18.869810 -14.484792 -22.398559 46.207736 -2.528443 1.718819 -12.542624 -6.671328 11.967664 0.000000 0.000000 0.000000 -3.304392 -24.465208 1.157381 -2.087288 -9.072772 -4.249657 11.799303 4.302589 -3.028738 4.585663 2.021318 -0.997363 0.000000 0.000000 0.000000 4.778799 1.821666 -0.966743 0.704430 1.909968 -0.304918 0.000000 0.000000 0.000000 3.989611 1.017677 -0.570975 1.759137 3.338632 -7.299088 -53.506295 -15.720259 -56.070041 -78.750408 -81.291525 -73.409555 0.000000 0.000000 0.000000 4.374384 1.831785 -2.006925 3.663578 14.502609 -5.391102 -39.248733 29.425210 54.729855 -159.336415 75.843869 157.731690 0.000000 0.000000 0.000000 
